<mxfile host="app.diagrams.net" modified="2024-03-08T09:11:02.398Z" agent="Mozilla/5.0 (X11; Linux x86_64) AppleWebKit/537.36 (KHTML, like Gecko) Chrome/122.0.0.0 Safari/537.36" version="24.0.2" etag="ysaNsQN3phz9w1_Cw2BB" type="github">
  <diagram name="Pagina-1" id="kBzXGDAI_xRE3UEz6Yyu">
    <mxGraphModel>
      <root>
        <mxCell id="0" />
        <mxCell id="1" parent="0" />
      </root>
    </mxGraphModel>
  </diagram>
</mxfile>
